<?xml version="1.0" encoding="UTF-8"?>
<svg version="1.1" xmlns="http://www.w3.org/2000/svg" width="128" height="128">
<path d="M0 0 C4.70951133 2.46325624 6.08447442 6.21546444 8.32421875 10.890625 C8.74896484 11.73753906 9.17371094 12.58445312 9.61132812 13.45703125 C11.38206725 16.99850951 13.08419392 20.5143419 14.60546875 24.171875 C15.91503965 26.83270476 15.91503965 26.83270476 18.5625 27.59375 C19.51511719 27.69171875 20.46773438 27.7896875 21.44921875 27.890625 C22.50882812 28.02339844 23.5684375 28.15617187 24.66015625 28.29296875 C25.80742188 28.40769531 26.9546875 28.52242187 28.13671875 28.640625 C30.61784271 28.89289861 33.09715376 29.16369951 35.57421875 29.453125 C36.70730469 29.56269531 37.84039062 29.67226563 39.0078125 29.78515625 C43.05872409 30.89270886 44.71361601 32.21840089 47.13671875 35.640625 C47.515625 38.8984375 47.515625 38.8984375 46.13671875 42.640625 C42.6362158 46.74953733 38.53127942 50.23341161 34.48632812 53.79296875 C30.06078621 57.71539909 30.06078621 57.71539909 27.5390625 62.890625 C27.50650169 65.22686306 27.74461278 67.33864758 28.13671875 69.640625 C28.30693216 71.18739656 28.47619804 72.73427269 28.64453125 74.28125 C28.94769188 76.60416913 29.26649197 78.92365346 29.6015625 81.2421875 C30.15652732 85.57831259 30.47407506 88.73033079 28.13671875 92.640625 C24.30850082 95.19277028 22.69733222 95.1596072 18.13671875 94.640625 C14.11252338 92.84672854 10.4503063 90.43803697 6.72070312 88.10742188 C2.2272605 85.39406282 2.2272605 85.39406282 -2.859375 84.54296875 C-7.90935545 86.3882802 -12.53627912 88.97540599 -17.23046875 91.578125 C-23.08705346 94.67403005 -23.08705346 94.67403005 -27.3125 94.4921875 C-30.05981844 93.57501228 -31.24239663 93.02929707 -32.86328125 90.640625 C-35.07389759 83.37908526 -32.45840045 74.33122305 -30.07421875 67.3203125 C-26.35846724 60.82529969 -17.29137792 57.75360263 -10.86328125 54.640625 C-11.81581787 54.70963013 -11.81581787 54.70963013 -12.78759766 54.7800293 C-15.6869235 54.98017426 -18.58725997 55.15435639 -21.48828125 55.328125 C-22.48730469 55.40095703 -23.48632812 55.47378906 -24.515625 55.54882812 C-33.42095876 56.05012175 -37.81930617 53.7715318 -44.67578125 48.078125 C-45.63097656 47.29308594 -46.58617187 46.50804687 -47.5703125 45.69921875 C-50.28525993 43.26177872 -50.75957314 42.41843583 -51.23828125 38.828125 C-50.86328125 35.640625 -50.86328125 35.640625 -49.03125 33.046875 C-44.52484819 29.62401 -40.32947882 29.4681763 -34.80078125 28.953125 C-32.83005615 28.74722835 -30.85995762 28.53522099 -28.890625 28.31640625 C-28.02171631 28.23302002 -27.15280762 28.14963379 -26.25756836 28.0637207 C-23.67702133 27.60771091 -22.03093938 27.11865157 -19.86328125 25.640625 C-18.36325095 23.41710073 -18.36325095 23.41710073 -17.171875 20.73828125 C-16.46708008 19.27938477 -16.46708008 19.27938477 -15.74804688 17.79101562 C-15.27044922 16.77201172 -14.79285156 15.75300781 -14.30078125 14.703125 C-13.34664542 12.69139282 -12.38722007 10.68215869 -11.421875 8.67578125 C-11.00220459 7.7825415 -10.58253418 6.88930176 -10.15014648 5.96899414 C-7.70114589 1.53793386 -5.31760642 -0.66742127 0 0 Z " fill="#FEB51F" transform="translate(65.86328125,17.359375)"/>
<path d="M0 0 C4.70951133 2.46325624 6.08447442 6.21546444 8.32421875 10.890625 C8.74896484 11.73753906 9.17371094 12.58445312 9.61132812 13.45703125 C11.38206725 16.99850951 13.08419392 20.5143419 14.60546875 24.171875 C15.91503965 26.83270476 15.91503965 26.83270476 18.5625 27.59375 C19.51511719 27.69171875 20.46773438 27.7896875 21.44921875 27.890625 C22.50882812 28.02339844 23.5684375 28.15617187 24.66015625 28.29296875 C25.80742188 28.40769531 26.9546875 28.52242187 28.13671875 28.640625 C30.61784271 28.89289861 33.09715376 29.16369951 35.57421875 29.453125 C36.70730469 29.56269531 37.84039062 29.67226563 39.0078125 29.78515625 C43.05872409 30.89270886 44.71361601 32.21840089 47.13671875 35.640625 C47.515625 38.8984375 47.515625 38.8984375 46.13671875 42.640625 C42.6362158 46.74953733 38.53127942 50.23341161 34.48632812 53.79296875 C30.06078621 57.71539909 30.06078621 57.71539909 27.5390625 62.890625 C27.50650169 65.22686306 27.74461278 67.33864758 28.13671875 69.640625 C28.30693216 71.18739656 28.47619804 72.73427269 28.64453125 74.28125 C28.94769188 76.60416913 29.26649197 78.92365346 29.6015625 81.2421875 C30.15652732 85.57831259 30.47407506 88.73033079 28.13671875 92.640625 C24.30850082 95.19277028 22.69733222 95.1596072 18.13671875 94.640625 C14.11252338 92.84672854 10.4503063 90.43803697 6.72070312 88.10742188 C2.2272605 85.39406282 2.2272605 85.39406282 -2.859375 84.54296875 C-7.90935545 86.3882802 -12.53627912 88.97540599 -17.23046875 91.578125 C-23.08705346 94.67403005 -23.08705346 94.67403005 -27.3125 94.4921875 C-30.05981844 93.57501228 -31.24239663 93.02929707 -32.86328125 90.640625 C-35.07389759 83.37908526 -32.45840045 74.33122305 -30.07421875 67.3203125 C-26.35846724 60.82529969 -17.29137792 57.75360263 -10.86328125 54.640625 C-11.81581787 54.70963013 -11.81581787 54.70963013 -12.78759766 54.7800293 C-15.6869235 54.98017426 -18.58725997 55.15435639 -21.48828125 55.328125 C-22.48730469 55.40095703 -23.48632812 55.47378906 -24.515625 55.54882812 C-33.42095876 56.05012175 -37.81930617 53.7715318 -44.67578125 48.078125 C-45.63097656 47.29308594 -46.58617187 46.50804687 -47.5703125 45.69921875 C-50.28525993 43.26177872 -50.75957314 42.41843583 -51.23828125 38.828125 C-50.86328125 35.640625 -50.86328125 35.640625 -49.03125 33.046875 C-44.52484819 29.62401 -40.32947882 29.4681763 -34.80078125 28.953125 C-32.83005615 28.74722835 -30.85995762 28.53522099 -28.890625 28.31640625 C-28.02171631 28.23302002 -27.15280762 28.14963379 -26.25756836 28.0637207 C-23.67702133 27.60771091 -22.03093938 27.11865157 -19.86328125 25.640625 C-18.36325095 23.41710073 -18.36325095 23.41710073 -17.171875 20.73828125 C-16.46708008 19.27938477 -16.46708008 19.27938477 -15.74804688 17.79101562 C-15.27044922 16.77201172 -14.79285156 15.75300781 -14.30078125 14.703125 C-13.34664542 12.69139282 -12.38722007 10.68215869 -11.421875 8.67578125 C-11.00220459 7.7825415 -10.58253418 6.88930176 -10.15014648 5.96899414 C-7.70114589 1.53793386 -5.31760642 -0.66742127 0 0 Z M-3.86328125 6.640625 C-4.21632324 7.32688965 -4.56936523 8.0131543 -4.93310547 8.72021484 C-6.53091043 11.82072358 -8.13451705 14.91819484 -9.73828125 18.015625 C-10.29386719 19.09585938 -10.84945312 20.17609375 -11.421875 21.2890625 C-11.95683594 22.3203125 -12.49179687 23.3515625 -13.04296875 24.4140625 C-13.53522949 25.36716309 -14.02749023 26.32026367 -14.53466797 27.30224609 C-15.86328125 29.640625 -15.86328125 29.640625 -17.86328125 31.640625 C-20.47705078 32.23486328 -20.47705078 32.23486328 -23.74609375 32.7109375 C-24.91269531 32.88496094 -26.07929687 33.05898438 -27.28125 33.23828125 C-28.50457031 33.41230469 -29.72789063 33.58632813 -30.98828125 33.765625 C-32.21933594 33.94738281 -33.45039062 34.12914063 -34.71875 34.31640625 C-37.76592328 34.76521472 -40.81401829 35.20628047 -43.86328125 35.640625 C-44.55421351 37.5123192 -44.55421351 37.5123192 -44.86328125 39.640625 C-42.78214714 42.22425562 -42.78214714 42.22425562 -39.86328125 44.640625 C-38.97640625 45.548125 -38.08953125 46.455625 -37.17578125 47.390625 C-33.04407453 50.65467331 -29.01395079 50.88235317 -23.86328125 50.640625 C-19.82597182 50.14307244 -15.81672834 49.49199529 -11.81567383 48.75976562 C-6.73744979 47.84188174 -2.02596448 47.49295099 3.13671875 47.640625 C3.13671875 49.290625 3.13671875 50.940625 3.13671875 52.640625 C1.03338479 53.85042585 -1.07096356 55.05841021 -3.17578125 56.265625 C-3.80790527 56.62954346 -4.4400293 56.99346191 -5.09130859 57.3684082 C-9.01257104 59.61624994 -12.97466037 61.74799402 -16.98828125 63.828125 C-22.33606569 66.76910453 -22.33606569 66.76910453 -25.86328125 71.640625 C-27.24181046 76.96932562 -27.98297293 82.13480789 -27.86328125 87.640625 C-25.53921363 88.45306458 -24.30913932 88.80382609 -21.9597168 87.94384766 C-21.31301025 87.5679248 -20.66630371 87.19200195 -20 86.8046875 C-19.27748047 86.39992188 -18.55496094 85.99515625 -17.81054688 85.578125 C-17.06482422 85.145 -16.31910156 84.711875 -15.55078125 84.265625 C-10.31196273 81.22996194 -6.06828735 78.9427414 0.13671875 78.640625 C2.88671875 79.578125 2.88671875 79.578125 5.13671875 80.640625 C6.12671875 80.640625 7.11671875 80.640625 8.13671875 80.640625 C8.13671875 81.300625 8.13671875 81.960625 8.13671875 82.640625 C9.04421875 82.90875 9.95171875 83.176875 10.88671875 83.453125 C14.13671875 84.640625 14.13671875 84.640625 16.19921875 86.390625 C16.83859375 86.803125 17.47796875 87.215625 18.13671875 87.640625 C20.8707001 86.93105263 20.8707001 86.93105263 23.13671875 85.640625 C23.22792502 81.26272423 23.18943357 77.05575417 22.63671875 72.703125 C22.46660507 71.34938704 22.30009959 69.99519203 22.13671875 68.640625 C22.03069336 67.88499268 21.92466797 67.12936035 21.81542969 66.35083008 C21.50792447 62.48885818 21.44141663 59.72644412 23.57421875 56.39575195 C25.58014385 54.21323817 27.66988484 52.23316098 29.88671875 50.265625 C30.61632812 49.58113281 31.3459375 48.89664063 32.09765625 48.19140625 C33.49082819 46.88689071 34.89334332 45.59225483 36.30664062 44.30957031 C38.31312874 42.47974737 40.24170348 40.58550909 42.13671875 38.640625 C40.49721943 35.44644787 40.49721943 35.44644787 37.78588867 35.07226562 C36.82271729 34.98138672 35.8595459 34.89050781 34.8671875 34.796875 C33.81337891 34.68472656 32.75957031 34.57257812 31.67382812 34.45703125 C30.56845703 34.35261719 29.46308594 34.24820313 28.32421875 34.140625 C26.14994455 33.93306317 23.97667077 33.7146767 21.8046875 33.484375 C20.83813232 33.39349609 19.87157715 33.30261719 18.87573242 33.20898438 C15.67939758 32.54572851 13.72866471 31.62698638 11.13671875 29.640625 C9.73046875 27.29638672 9.73046875 27.29638672 8.63671875 24.5703125 C8.22421875 23.59191406 7.81171875 22.61351562 7.38671875 21.60546875 C6.55066865 19.53885741 5.7173515 17.47113843 4.88671875 15.40234375 C4.47421875 14.42652344 4.06171875 13.45070313 3.63671875 12.4453125 C3.0953125 11.09928955 3.0953125 11.09928955 2.54296875 9.72607422 C1.27960967 7.37820648 1.27960967 7.37820648 -1.51953125 6.84033203 C-2.29296875 6.77442871 -3.06640625 6.70852539 -3.86328125 6.640625 Z " fill="#EFA114" transform="translate(65.86328125,17.359375)"/>
<path d="M0 0 C2.24609375 -0.04296875 2.24609375 -0.04296875 5 1 C6.7790654 3.71091913 7.88567187 6.67585768 9.0625 9.6875 C12.22501666 17.79581793 12.22501666 17.79581793 17 25 C19.7694597 26.13508831 19.7694597 26.13508831 22.75 26.375 C24.22726563 26.57222656 24.22726563 26.57222656 25.734375 26.7734375 C26.48203125 26.84820312 27.2296875 26.92296875 28 27 C28 28.32 28 29.64 28 31 C25.7654295 32.75061272 23.67101256 34.18392109 21.25 35.625 C20.61578125 36.01945312 19.9815625 36.41390625 19.328125 36.8203125 C17.56636815 37.90672922 15.78836269 38.95815445 14 40 C13.28457031 40.43183594 12.56914063 40.86367187 11.83203125 41.30859375 C9.43689987 42.21251327 7.94978623 41.8851144 5.4375 41.4375 C-0.15925039 40.76799626 -5.06953801 41.51819721 -10.5625 42.5 C-26.37447464 45.19466493 -26.37447464 45.19466493 -32.78125 41.31640625 C-39.615032 36.23905979 -39.615032 36.23905979 -40.83984375 32.296875 C-40.89269531 31.53890625 -40.94554688 30.7809375 -41 30 C-39.25958455 28.25958455 -36.76508369 28.56003911 -34.390625 28.30859375 C-33.24335937 28.16744141 -32.09609375 28.02628906 -30.9140625 27.88085938 C-28.4898848 27.5875287 -26.06258001 27.31888623 -23.6328125 27.07617188 C-17.43574078 26.43104603 -17.43574078 26.43104603 -12.22583008 23.37939453 C-10.90845586 21.30927171 -9.95020797 19.26083124 -9 17 C-8.19179222 15.49415198 -7.37260301 13.99415028 -6.54296875 12.5 C-5.75469811 11.00163431 -4.96954252 9.50162573 -4.1875 8 C-3.78080078 7.22527344 -3.37410156 6.45054688 -2.95507812 5.65234375 C-1.96726531 3.76968874 -0.98322704 1.88505402 0 0 Z " fill="#FED864" transform="translate(62,24)"/>
<path d="M0 0 C4.70951133 2.46325624 6.08447442 6.21546444 8.32421875 10.890625 C8.74896484 11.73753906 9.17371094 12.58445312 9.61132812 13.45703125 C11.38206725 16.99850951 13.08419392 20.5143419 14.60546875 24.171875 C15.91503965 26.83270476 15.91503965 26.83270476 18.5625 27.59375 C19.51511719 27.69171875 20.46773438 27.7896875 21.44921875 27.890625 C22.50882812 28.02339844 23.5684375 28.15617187 24.66015625 28.29296875 C25.80742188 28.40769531 26.9546875 28.52242187 28.13671875 28.640625 C30.61784271 28.89289861 33.09715376 29.16369951 35.57421875 29.453125 C36.70730469 29.56269531 37.84039062 29.67226563 39.0078125 29.78515625 C43.05872409 30.89270886 44.71361601 32.21840089 47.13671875 35.640625 C47.515625 38.8984375 47.515625 38.8984375 46.13671875 42.640625 C42.6362158 46.74953733 38.53127942 50.23341161 34.48632812 53.79296875 C30.06078621 57.71539909 30.06078621 57.71539909 27.5390625 62.890625 C27.50650169 65.22686306 27.74461278 67.33864758 28.13671875 69.640625 C28.30693216 71.18739656 28.47619804 72.73427269 28.64453125 74.28125 C28.94769188 76.60416913 29.26649197 78.92365346 29.6015625 81.2421875 C30.15652732 85.57831259 30.47407506 88.73033079 28.13671875 92.640625 C24.30850082 95.19277028 22.69733222 95.1596072 18.13671875 94.640625 C14.11252338 92.84672854 10.4503063 90.43803697 6.72070312 88.10742188 C2.2272605 85.39406282 2.2272605 85.39406282 -2.859375 84.54296875 C-7.90935545 86.3882802 -12.53627912 88.97540599 -17.23046875 91.578125 C-23.08705346 94.67403005 -23.08705346 94.67403005 -27.3125 94.4921875 C-30.05981844 93.57501228 -31.24239663 93.02929707 -32.86328125 90.640625 C-35.07389759 83.37908526 -32.45840045 74.33122305 -30.07421875 67.3203125 C-26.35846724 60.82529969 -17.29137792 57.75360263 -10.86328125 54.640625 C-11.81581787 54.70963013 -11.81581787 54.70963013 -12.78759766 54.7800293 C-15.6869235 54.98017426 -18.58725997 55.15435639 -21.48828125 55.328125 C-22.48730469 55.40095703 -23.48632812 55.47378906 -24.515625 55.54882812 C-33.42095876 56.05012175 -37.81930617 53.7715318 -44.67578125 48.078125 C-45.63097656 47.29308594 -46.58617187 46.50804687 -47.5703125 45.69921875 C-50.28525993 43.26177872 -50.75957314 42.41843583 -51.23828125 38.828125 C-50.86328125 35.640625 -50.86328125 35.640625 -49.03125 33.046875 C-44.52484819 29.62401 -40.32947882 29.4681763 -34.80078125 28.953125 C-32.83005615 28.74722835 -30.85995762 28.53522099 -28.890625 28.31640625 C-28.02171631 28.23302002 -27.15280762 28.14963379 -26.25756836 28.0637207 C-23.67702133 27.60771091 -22.03093938 27.11865157 -19.86328125 25.640625 C-18.36325095 23.41710073 -18.36325095 23.41710073 -17.171875 20.73828125 C-16.46708008 19.27938477 -16.46708008 19.27938477 -15.74804688 17.79101562 C-15.27044922 16.77201172 -14.79285156 15.75300781 -14.30078125 14.703125 C-13.34664542 12.69139282 -12.38722007 10.68215869 -11.421875 8.67578125 C-11.00220459 7.7825415 -10.58253418 6.88930176 -10.15014648 5.96899414 C-7.70114589 1.53793386 -5.31760642 -0.66742127 0 0 Z M-5.49438477 3.91894531 C-6.8539449 5.62888255 -7.81857312 7.22228301 -8.765625 9.1875 C-9.26545898 10.2084375 -9.26545898 10.2084375 -9.77539062 11.25 C-10.11376953 11.95640625 -10.45214844 12.6628125 -10.80078125 13.390625 C-11.80877257 15.47264175 -12.82213202 17.55054669 -13.85888672 19.6184082 C-14.52036458 20.9502072 -15.15573336 22.295346 -15.76220703 23.65307617 C-17.45314154 27.13618528 -18.46161394 28.48372371 -22.11328125 29.91015625 C-23.35078125 30.08933594 -24.58828125 30.26851562 -25.86328125 30.453125 C-26.52030029 30.55874756 -27.17731934 30.66437012 -27.85424805 30.77319336 C-29.85420898 31.09045187 -31.85684759 31.36772213 -33.86328125 31.640625 C-36.13524149 31.98748916 -38.40622353 32.34087395 -40.67578125 32.703125 C-41.63097656 32.83847656 -42.58617187 32.97382812 -43.5703125 33.11328125 C-46.0454093 33.46899843 -46.0454093 33.46899843 -47.86328125 35.640625 C-48.37942535 38.54798336 -48.37942535 38.54798336 -47.86328125 41.640625 C-46.11669706 43.97098126 -46.11669706 43.97098126 -43.67578125 45.828125 C-42.89847656 46.48167969 -42.12117188 47.13523438 -41.3203125 47.80859375 C-32.00086971 54.75743106 -22.73541708 53.15270472 -11.73657227 51.56103516 C-7.77267554 50.95467199 -3.81722374 50.30889697 0.13671875 49.640625 C0.13671875 50.630625 0.13671875 51.620625 0.13671875 52.640625 C-1.16265625 53.02927734 -1.16265625 53.02927734 -2.48828125 53.42578125 C-5.91840848 54.66046825 -8.74919718 56.19264441 -11.86328125 58.078125 C-14.8754907 59.89407939 -17.78032154 61.60318943 -20.98828125 63.05078125 C-25.32885382 65.4510707 -27.32208326 68.04530258 -28.91015625 72.7265625 C-30.8156588 81.11466815 -30.8156588 81.11466815 -30.86328125 89.640625 C-30.20328125 90.300625 -29.54328125 90.960625 -28.86328125 91.640625 C-22.02216086 91.52060534 -17.62236497 89.12028154 -11.86328125 85.640625 C-5.1418067 81.69621306 -5.1418067 81.69621306 -0.98828125 81.515625 C4.49153321 83.4883582 9.28981931 86.75014954 14.125 89.9609375 C17.13401793 91.86909521 18.84217964 92.65173968 22.44921875 92.515625 C25.25187474 91.82777384 25.25187474 91.82777384 27.13671875 89.640625 C27.14570977 86.9882741 27.03748489 84.46393444 26.82421875 81.828125 C26.77442871 81.06854492 26.72463867 80.30896484 26.67333984 79.52636719 C26.42975275 75.93213785 26.10433974 72.37757901 25.6640625 68.80078125 C24.66576265 60.33946309 24.66576265 60.33946309 27.07421875 56.765625 C28.08484375 56.064375 29.09546875 55.363125 30.13671875 54.640625 C31.50249167 53.46649215 32.85598603 52.27797894 34.19921875 51.078125 C34.88113281 50.48515625 35.56304687 49.8921875 36.265625 49.28125 C38.32229149 47.47790986 40.31796301 45.6867252 42.13671875 43.640625 C42.13671875 42.980625 42.13671875 42.320625 42.13671875 41.640625 C42.79671875 41.640625 43.45671875 41.640625 44.13671875 41.640625 C44.55418483 38.76697709 44.55418483 38.76697709 44.13671875 35.640625 C39.01580216 31.03068924 31.03560658 31.62400681 24.5078125 31.17578125 C17.113875 30.44115778 17.113875 30.44115778 14.44970703 28.25854492 C13.10618779 26.44924832 12.1138341 24.67028387 11.13671875 22.640625 C10.60739746 21.64748291 10.60739746 21.64748291 10.06738281 20.63427734 C9.00181964 18.59366026 7.99959193 16.53234424 7.01171875 14.453125 C4.20960689 8.12477982 4.20960689 8.12477982 0.13671875 2.640625 C-3.68395013 2.22939291 -3.68395013 2.22939291 -5.49438477 3.91894531 Z " fill="#C66D05" transform="translate(65.86328125,17.359375)"/>
<path d="M0 0 C0.33 1.32 0.66 2.64 1 4 C0.34 4 -0.32 4 -1 4 C-1.24242432 4.60972656 -1.48484863 5.21945313 -1.73461914 5.84765625 C-3.27469993 8.46724958 -4.53396599 9.11921147 -7.24609375 10.4375 C-8.50196289 11.06785156 -8.50196289 11.06785156 -9.78320312 11.7109375 C-10.65912109 12.13632813 -11.53503906 12.56171875 -12.4375 13 C-14.16984365 13.84504568 -15.89791315 14.69892294 -17.62109375 15.5625 C-18.77242798 16.12130859 -18.77242798 16.12130859 -19.94702148 16.69140625 C-23.1725065 18.74737006 -24.710092 20.95974187 -25.73046875 24.62109375 C-25.88128906 25.55050781 -26.03210937 26.47992188 -26.1875 27.4375 C-26.34605469 28.36433594 -26.50460938 29.29117188 -26.66796875 30.24609375 C-26.98357086 32.86373481 -27.06212785 35.36673498 -27 38 C-21.58929473 37.33661851 -17.3226857 34.56816689 -12.703125 31.8828125 C-7.83203428 29.1589781 -3.25026681 27.2539516 2.43359375 28.55859375 C4.2890625 29.37239583 6.14453125 30.18619792 8 31 C8 31.66 8 32.32 8 33 C8.9075 32.9175 9.815 32.835 10.75 32.75 C14.73735823 33.05671986 15.32027434 34.23095015 18 37 C20.10202751 36.67518028 20.10202751 36.67518028 22 36 C22.09120627 31.62209923 22.05271482 27.41512917 21.5 23.0625 C21.33043768 21.70869287 21.16395227 20.35449799 21 19 C20.88527344 18.19433594 20.77054688 17.38867188 20.65234375 16.55859375 C20.30526088 12.42515232 20.2572979 10.00435427 22.78515625 6.5859375 C24.77834342 4.59626565 26.80077376 2.7574174 29 1 C29.99 1.33 30.98 1.66 32 2 C29.44738222 6.7223429 29.44738222 6.7223429 26.87890625 8.31640625 C24.71796222 9.86425497 24.71796222 9.86425497 24.79296875 12.5390625 C24.92316406 13.55742188 25.05335937 14.57578125 25.1875 15.625 C25.30867188 16.7696875 25.42984375 17.914375 25.5546875 19.09375 C25.70164063 20.3828125 25.84859375 21.671875 26 23 C26.31113487 26.03924017 26.5718904 29.07944897 26.8125 32.125 C26.92791138 33.22642334 26.92791138 33.22642334 27.0456543 34.35009766 C27.29440213 37.57967997 27.43177991 39.45008176 25.38671875 42.0546875 C22.08285601 43.36325507 20.41087213 42.99535829 17 42 C14.51475649 40.75326814 12.18335779 39.49209941 9.8125 38.0625 C9.19697266 37.70220703 8.58144531 37.34191406 7.94726562 36.97070312 C5.24642671 35.38180222 2.60768135 33.73845424 0 32 C-4.55612317 32.31639744 -7.98505703 33.77342829 -12 35.875 C-12.99 36.38804688 -13.98 36.90109375 -15 37.4296875 C-16.485 38.20699219 -16.485 38.20699219 -18 39 C-24.83892755 42.57792673 -24.83892755 42.57792673 -29 42 C-31 40 -31 40 -31.08203125 37.27734375 C-29.73475417 20.58282338 -29.73475417 20.58282338 -24.328125 15.4765625 C-21.10154106 12.92496957 -17.65220877 11.14544879 -13.9375 9.375 C-10.60297291 7.77471664 -7.35054618 6.21354552 -4.19140625 4.2890625 C-2 3 -2 3 0 3 C0 2.01 0 1.02 0 0 Z " fill="#EA8F08" transform="translate(66,67)"/>
<path d="M0 0 C0 0.99 0 1.98 0 3 C-1.1446875 3.804375 -1.1446875 3.804375 -2.3125 4.625 C-8.51320336 10.10469134 -8.44217929 18.56738182 -8.984375 26.375 C-8.98953125 27.24125 -8.9946875 28.1075 -9 29 C-8.67 29.33 -8.34 29.66 -8 30 C-1.14687459 29.75524552 3.2108138 27.49784455 9 24 C15.72147455 20.05558806 15.72147455 20.05558806 19.875 19.875 C25.35481446 21.8477332 30.15310056 25.10952454 34.98828125 28.3203125 C38.05226204 30.26332471 39.69923411 31.01670922 43.375 30.8125 C45.90132364 30.25414608 45.90132364 30.25414608 47 29 C46.9066764 26.38392878 46.75608228 23.79654351 46.5625 21.1875 C46.08520903 14.11328594 45.87700398 7.09277072 46 0 C46.66 0 47.32 0 48 0 C48.56242435 4.39343731 49.09630075 8.78988713 49.625 13.1875 C49.78484375 14.43337891 49.9446875 15.67925781 50.109375 16.96289062 C50.25117187 18.16494141 50.39296875 19.36699219 50.5390625 20.60546875 C50.67521973 21.71043701 50.81137695 22.81540527 50.95166016 23.95385742 C51.0038678 27.24372975 50.57144316 29.12490879 49 32 C45.17178207 34.55214528 43.56061347 34.5189822 39 34 C34.97580463 32.20610354 31.31358755 29.79741197 27.58398438 27.46679688 C23.09054175 24.75343782 23.09054175 24.75343782 18.00390625 23.90234375 C12.9539258 25.7476552 8.32700213 28.33478099 3.6328125 30.9375 C-2.22377221 34.03340505 -2.22377221 34.03340505 -6.44921875 33.8515625 C-9.19653719 32.93438728 -10.37911538 32.38867207 -12 30 C-13.35154299 25.56038605 -12.72668211 21.59217654 -11.875 17.125 C-11.74029297 16.41263184 -11.60558594 15.70026367 -11.46679688 14.96630859 C-10.2512188 9.14679551 -7.38973989 0 0 0 Z " fill="#C26205" transform="translate(45,78)"/>
<path d="M0 0 C1.32 0 2.64 0 4 0 C3.50376019 5.56310941 1.36042562 9.37301903 -1.4375 14.0625 C-2.25155174 15.44754538 -3.0628254 16.83422792 -3.87109375 18.22265625 C-4.25023926 18.87274658 -4.62938477 19.52283691 -5.02001953 20.19262695 C-6.12160084 22.12745358 -6.12160084 22.12745358 -7.08203125 24.859375 C-8.37571758 27.87614143 -10.48333482 28.84257049 -13.39453125 30.15234375 C-21.60861612 32.8246922 -30.42048582 33.29584532 -39 33 C-39 32.01 -39 31.02 -39 30 C-37.0845554 29.53658598 -35.16754846 29.07963003 -33.25 28.625 C-32.06921875 28.34269531 -30.8884375 28.06039062 -29.671875 27.76953125 C-25.35352698 26.86451576 -21.05515835 26.42144653 -16.65625 26.11328125 C-12.44061086 24.34643249 -11.08340107 20.92020397 -9 17 C-8.59249512 16.25790283 -8.18499023 15.51580566 -7.76513672 14.7512207 C-6.54958025 12.51217832 -5.36430411 10.25962053 -4.1875 8 C-3.78080078 7.22527344 -3.37410156 6.45054688 -2.95507812 5.65234375 C-1.96726531 3.76968874 -0.98322704 1.88505402 0 0 Z " fill="#FEF7CD" transform="translate(62,24)"/>
<path d="M0 0 C3.25 -0.375 3.25 -0.375 6 0 C6 0.99 6 1.98 6 3 C4.68 2.67 3.36 2.34 2 2 C1.62488281 2.99 1.62488281 2.99 1.2421875 4 C-0.31005335 7.74880809 -2.07175301 11.36669195 -3.875 15 C-4.21402344 15.69867188 -4.55304687 16.39734375 -4.90234375 17.1171875 C-9.94491318 27.27901944 -9.94491318 27.27901944 -13.88867188 28.66259766 C-16.19258106 29.16882169 -18.47281167 29.51409946 -20.8125 29.8125 C-21.59431641 29.93302734 -22.37613281 30.05355469 -23.18164062 30.17773438 C-35.52624775 31.9825015 -35.52624775 31.9825015 -40 29 C-38.94087402 28.83395264 -38.94087402 28.83395264 -37.86035156 28.66455078 C-34.65577717 28.15820484 -31.45291763 27.64171783 -28.25 27.125 C-27.13882813 26.95097656 -26.02765625 26.77695312 -24.8828125 26.59765625 C-23.81289063 26.42363281 -22.74296875 26.24960937 -21.640625 26.0703125 C-20.65610352 25.91320801 -19.67158203 25.75610352 -18.65722656 25.59423828 C-15.29542944 24.84243617 -12.83764494 24.26010302 -10.875 21.30761719 C-10.58625 20.64407227 -10.2975 19.98052734 -10 19.296875 C-9.67 18.56339844 -9.34 17.82992187 -9 17.07421875 C-8.67 16.30722656 -8.34 15.54023437 -8 14.75 C-3.43663891 4.35765813 -3.43663891 4.35765813 0 0 Z " fill="#EAA620" transform="translate(60,22)"/>
<path d="M0 0 C1.01719864 3.16765214 1.09916277 3.77334225 -0.3125 7 C-0.869375 7.99 -1.42625 8.98 -2 10 C-3.12336693 12.18065346 -4.09323516 14.25484278 -4.9375 16.5625 C-6.02441509 19.05601109 -6.81111761 20.4004321 -9 22 C-10.32 22 -11.64 22 -13 22 C-13.33 22.99 -13.66 23.98 -14 25 C-14.85464844 25.06058594 -15.70929687 25.12117188 -16.58984375 25.18359375 C-18.24693359 25.30927734 -18.24693359 25.30927734 -19.9375 25.4375 C-21.03964844 25.51871094 -22.14179687 25.59992187 -23.27734375 25.68359375 C-25.91109903 25.70418084 -25.91109903 25.70418084 -27 27 C-32.27951886 27.42040613 -37.22479306 27.54677703 -42 25 C-41.67 23.68 -41.34 22.36 -41 21 C-39.68 21.33 -38.36 21.66 -37 22 C-37.99 22 -38.98 22 -40 22 C-40 22.99 -40 23.98 -40 25 C-36.289365 24.58076744 -32.58215605 24.13637853 -28.875 23.6875 C-27.82828125 23.56955078 -26.7815625 23.45160156 -25.703125 23.33007812 C-20.1905995 22.64973479 -15.87018522 21.85025594 -11 19 C-10.34 19 -9.68 19 -9 19 C-8.74476562 18.15179688 -8.48953125 17.30359375 -8.2265625 16.4296875 C-6.91505516 12.76247907 -5.25356877 9.53425443 -3.375 6.125 C-2.74335937 4.97257812 -2.11171875 3.82015625 -1.4609375 2.6328125 C-0.97882812 1.76398437 -0.49671875 0.89515625 0 0 Z " fill="#F9DD8A" transform="translate(63,32)"/>
<path d="M0 0 C9.7003861 -0.45868726 9.7003861 -0.45868726 14.1875 1.125 C16 3 16 3 16.3125 6.1875 C16.209375 7.115625 16.10625 8.04375 16 9 C15.34 9 14.68 9 14 9 C13.67 9.99 13.34 10.98 13 12 C11.2578125 13.859375 11.2578125 13.859375 9.125 15.75 C8.42632812 16.38421875 7.72765625 17.0184375 7.0078125 17.671875 C6.01394531 18.32929687 6.01394531 18.32929687 5 19 C4.01 18.67 3.02 18.34 2 18 C5.50897269 13.81576108 9.08060535 9.80411834 13 6 C12.67 5.34 12.34 4.68 12 4 C9.41394668 3.5316735 9.41394668 3.5316735 6.4375 3.375 C4.91962891 3.26285156 4.91962891 3.26285156 3.37109375 3.1484375 C2.19740234 3.07496094 2.19740234 3.07496094 1 3 C0.67 2.01 0.34 1.02 0 0 Z " fill="#F2A00B" transform="translate(94,50)"/>
<path d="M0 0 C-0.33 0.99 -0.66 1.98 -1 3 C-18.85649203 6.44419134 -18.85649203 6.44419134 -27 6 C-27 5.01 -27 4.02 -27 3 C-23.61368138 1.87122713 -20.68711734 1.7108653 -17.125 1.5 C-11.36218903 1.15741251 -5.75741199 -0.16449749 0 0 Z " fill="#FEFDE1" transform="translate(50,51)"/>
<path d="M0 0 C-6.27154069 4.18102712 -15.49175856 5.8161132 -23 5 C-23.99 4.34 -24.98 3.68 -26 3 C-22.0434398 2.30201901 -18.08453321 1.61839589 -14.125 0.9375 C-12.99707031 0.73833984 -11.86914062 0.53917969 -10.70703125 0.33398438 C-9.63066406 0.15029297 -8.55429687 -0.03339844 -7.4453125 -0.22265625 C-6.45031738 -0.39547119 -5.45532227 -0.56828613 -4.43017578 -0.74633789 C-2 -1 -2 -1 0 0 Z " fill="#E7A122" transform="translate(46,48)"/>
<path d="M0 0 C0.33 1.32 0.66 2.64 1 4 C1.66 4 2.32 4 3 4 C2.75 5.875 2.75 5.875 2 8 C-0.0625 9.25 -0.0625 9.25 -2 10 C-2 9.34 -2 8.68 -2 8 C-2.60585938 8.144375 -3.21171875 8.28875 -3.8359375 8.4375 C-9.98654607 9.80009636 -15.71013545 10.24088843 -22 10 C-22 9.67 -22 9.34 -22 9 C-20.12054687 8.77957031 -20.12054687 8.77957031 -18.203125 8.5546875 C-16.55189258 8.32951944 -14.90086041 8.1028795 -13.25 7.875 C-12.425 7.7821875 -11.6 7.689375 -10.75 7.59375 C-6.213078 7.01616748 -6.213078 7.01616748 -2.52929688 4.54394531 C-1.27188978 2.73547109 -1.27188978 2.73547109 0 0 Z " fill="#FDF3BD" transform="translate(52,43)"/>
<path d="M0 0 C0.66 0 1.32 0 2 0 C2.66 1.65 3.32 3.3 4 5 C9.445 4.505 9.445 4.505 15 4 C10.74962772 8.11754815 7.74400414 8.811672 2 9 C0 7 0 7 -0.125 3.375 C-0.08375 2.26125 -0.0425 1.1475 0 0 Z " fill="#E57F0A" transform="translate(35,100)"/>
<path d="M0 0 C3.27652238 -0.29786567 4.99141637 -0.00411299 8 1.4375 C13.29800828 3.93900948 19.24161133 3.7488823 25 4 C25 4.33 25 4.66 25 5 C17.18847743 6.32962086 9.97719463 7.4853394 3 3 C1.125 1.3125 1.125 1.3125 0 0 Z " fill="#BD6808" transform="translate(24,67)"/>
<path d="M0 0 C0.33 0 0.66 0 1 0 C1.27554763 2.77045173 1.52123257 5.53813416 1.75 8.3125 C1.87181641 9.49102539 1.87181641 9.49102539 1.99609375 10.69335938 C2.1619623 12.85886546 2.26210209 14.84344571 2 17 C0.21484375 19.0546875 0.21484375 19.0546875 -2 20 C-5.1875 19.8125 -5.1875 19.8125 -8 19 C-8.33 18.34 -8.66 17.68 -9 17 C-5.7 16.67 -2.4 16.34 1 16 C0.67 15.34 0.34 14.68 0 14 C-0.07116382 11.62597499 -0.08409085 9.24999323 -0.0625 6.875 C-0.05347656 5.59367187 -0.04445313 4.31234375 -0.03515625 2.9921875 C-0.02355469 2.00476563 -0.01195313 1.01734375 0 0 Z " fill="#E48009" transform="translate(91,90)"/>
<path d="M0 0 C0.99 0 1.98 0 3 0 C3 1.32 3 2.64 3 4 C2.2575 4.2475 1.515 4.495 0.75 4.75 C-2.07315072 5.83906842 -2.07315072 5.83906842 -4 8 C-6.24505134 10.24505134 -7.9578658 11.14196215 -11 12 C-11.99 11.67 -12.98 11.34 -14 11 C-12.23174858 9.85018626 -10.46030479 8.70528078 -8.6875 7.5625 C-7.70136719 6.92441406 -6.71523437 6.28632812 -5.69921875 5.62890625 C-3 4 -3 4 0 3 C0 2.01 0 1.02 0 0 Z " fill="#F9C63C" transform="translate(90,52)"/>
<path d="M0 0 C0.99 0 1.98 0 3 0 C1.08414074 6.6318205 1.08414074 6.6318205 -2 9 C-4.48046875 9.51171875 -4.48046875 9.51171875 -7.1875 9.6875 C-8.08855469 9.75324219 -8.98960938 9.81898437 -9.91796875 9.88671875 C-10.94857422 9.94279297 -10.94857422 9.94279297 -12 10 C-12 9.67 -12 9.34 -12 9 C-10.9275 8.773125 -9.855 8.54625 -8.75 8.3125 C-4.0153821 6.65538374 -2.20124963 4.40249925 0 0 Z " fill="#E6A830" transform="translate(50,41)"/>
<path d="M0 0 C0.99 0.33 1.98 0.66 3 1 C1.375 7.75 1.375 7.75 -2 10 C-4.33199388 10.07905064 -6.66832622 10.08798769 -9 10 C-9 9.34 -9 8.68 -9 8 C-7.88625 7.79375 -6.7725 7.5875 -5.625 7.375 C-1.73400805 6.38371699 -1.73400805 6.38371699 -0.5625 2.875 C-0.376875 1.92625 -0.19125 0.9775 0 0 Z " fill="#BA5E0E" transform="translate(93,102)"/>
<path d="M0 0 C1.4540625 0.0309375 1.4540625 0.0309375 2.9375 0.0625 C2.9375 1.0525 2.9375 2.0425 2.9375 3.0625 C1.6175 2.7325 0.2975 2.4025 -1.0625 2.0625 C-1.35125 2.805 -1.64 3.5475 -1.9375 4.3125 C-2.88552644 6.62989797 -3.91095911 8.84167115 -5.0625 11.0625 C-6.38076804 7.10769588 -5.35786133 4.94858399 -4.0625 1.0625 C-3.0625 0.0625 -3.0625 0.0625 0 0 Z " fill="#ECB429" transform="translate(63.0625,21.9375)"/>
<path d="M0 0 C1.32 0 2.64 0 4 0 C3.25 5.75 3.25 5.75 1 8 C1 7.01 1 6.02 1 5 C0.01 5 -0.98 5 -2 5 C-1.34 3.35 -0.68 1.7 0 0 Z " fill="#FEF8BD" transform="translate(62,24)"/>
<path d="M0 0 C2.0625 0.4375 2.0625 0.4375 4 1 C3.835 1.61875 3.67 2.2375 3.5 2.875 C2.92365356 4.96063386 2.92365356 4.96063386 3 7 C2.01 7.33 1.02 7.66 0 8 C-1 7 -1 7 -1.125 4 C-1 1 -1 1 0 0 Z " fill="#F49E1B" transform="translate(19,52)"/>
<path d="M0 0 C2.39073149 2.93189994 3.84107307 5.72143288 5.1875 9.25 C5.53167969 10.14203125 5.87585938 11.0340625 6.23046875 11.953125 C6.48441406 12.62859375 6.73835938 13.3040625 7 14 C6.01 13.67 5.02 13.34 4 13 C2.8125 9.4375 2.8125 9.4375 2 6 C1.34 6 0.68 6 0 6 C0 4.02 0 2.04 0 0 Z " fill="#FDD549" transform="translate(70,34)"/>
<path d="M0 0 C2.97 0.33 5.94 0.66 9 1 C8.67 2.65 8.34 4.3 8 6 C4.63408134 4.55746343 2.48952921 2.66735273 0 0 Z " fill="#FED157" transform="translate(22,58)"/>
<path d="M0 0 C0 0.66 0 1.32 0 2 C0.66 2.66 1.32 3.32 2 4 C-0.97 4 -3.94 4 -7 4 C-7 3.01 -7 2.02 -7 1 C-4 0 -4 0 0 0 Z " fill="#FEFED0" transform="translate(30,53)"/>
<path d="M0 0 C0.99 0 1.98 0 3 0 C2.75 2.375 2.75 2.375 2 5 C-0.0625 6.3125 -0.0625 6.3125 -2 7 C-2 5.68 -2 4.36 -2 3 C-1.34 3 -0.68 3 0 3 C0 2.01 0 1.02 0 0 Z " fill="#FDFBE3" transform="translate(55,40)"/>
<path d="M0 0 C0.66 0.99 1.32 1.98 2 3 C0.68 3.33 -0.64 3.66 -2 4 C-2 5.98 -2 7.96 -2 10 C-2.33 10 -2.66 10 -3 10 C-3.36923077 3.47692308 -3.36923077 3.47692308 -1.5 1.0625 C-1.005 0.711875 -0.51 0.36125 0 0 Z " fill="#CD7001" transform="translate(93,74)"/>
<path d="M0 0 C0.33 1.32 0.66 2.64 1 4 C0.34 4 -0.32 4 -1 4 C-1.33 4.99 -1.66 5.98 -2 7 C-3.32 6.67 -4.64 6.34 -6 6 C-2.25 3 -2.25 3 0 3 C0 2.01 0 1.02 0 0 Z " fill="#E79107" transform="translate(66,67)"/>
</svg>
